<svg version="1.2" xmlns="http://www.w3.org/2000/svg" viewBox="0 0 980 70" width="980" height="70">
	<title>New Project</title>
	<style>
		.s0 { fill: #000000 } 
	</style>
	<path id="ravi_kilnake@hotmail.com" class="s0" aria-label="ravi_kilnake@hotmail.com"  d="m32.7 21v5.5q-3.7-0.6-7-0.6-5.4 0-8.7 4-3.3 4-3.3 10.2v16.9h-5.9v-23.3q0-2.5-0.5-5.9-0.4-3.4-1.3-6.7h5.7q1.3 4.6 1.6 8.3h0.2q1.6-3.7 3.2-5.5 1.6-1.7 3.8-2.6 2.2-0.9 5.4-0.9 3.4 0 6.8 0.6zm42.7 32.3q0.8 0 1.9-0.2v3.7q-2.2 0.5-4.6 0.5-3.3 0-4.8-1.7-1.5-1.8-1.7-5.5h-0.2q-2.2 4-5.1 5.8-3 1.8-7.3 1.8-5.2 0-7.9-2.9-2.6-2.8-2.6-7.8 0-11.6 15-11.8l7.9-0.1v-2q0-4.3-1.8-6.2-1.8-1.9-5.6-1.9-3.9 0-5.6 1.4-1.8 1.3-2.1 4.3l-6.2-0.6q1.5-9.7 14-9.7 6.6 0 10 3.1 3.3 3.1 3.3 9v15.5q0 2.6 0.7 4 0.7 1.3 2.7 1.3zm-20.3-0.2q3.2 0 5.7-1.5 2.4-1.5 3.8-4.1 1.4-2.6 1.4-5.3v-2.9l-6.3 0.1q-4 0.1-6 0.9-2.1 0.8-3.2 2.4-1.2 1.6-1.2 4.4 0 2.7 1.5 4.4 1.5 1.6 4.3 1.6zm63-32l-14.7 35.9h-7.1l-14.4-35.9h6.7l8.9 23.3 0.6 1.8 1.7 6.1 1.2-3.9 1.3-3.9 9.1-23.4zm27.1 0v31.2h12.6v4.7h-32.6v-4.7h14v-26.5h-10.6v-4.7zm0-7h-6.6v-6.4h6.6zm57 50.2h-41.1v-3.2h41.1zm37.2-7.3h-7l-12.1-16.5-4.4 3.2v13.3h-6v-49.2h6v30.7l15.8-17.4h7l-14.6 15.5zm28.2-36v31.2h12.6v4.8h-32.6v-4.8h14v-26.5h-10.6v-4.7zm0-6.9h-6.6v-6.4h6.6zm40.5-6.4v44.6h12.7v4.7h-32.7v-4.7h14.1v-39.9h-9.6v-4.7zm51.2 49.3h-6v-23.1q0-4.5-1.8-6.7-1.7-2.2-5.6-2.2-4.1 0-6.7 3-2.7 3-2.7 8.2v20.8h-5.9v-28.3q0-6.3-0.2-7.6h5.6q0.1 0.1 0.1 0.8 0 0.8 0.1 1.7 0 1 0.1 3.6h0.1q3.5-6.8 11.5-6.8 5.7 0 8.5 3.1 2.9 3.1 2.9 9.5zm42.5-3.6q0.9 0 2-0.3v3.7q-2.3 0.6-4.7 0.6-3.3 0-4.8-1.8-1.5-1.7-1.7-5.4h-0.2q-2.2 4-5.1 5.7-2.9 1.8-7.3 1.8-5.2 0-7.9-2.9-2.6-2.8-2.6-7.8 0-11.6 15.1-11.7l7.8-0.2v-1.9q0-4.4-1.8-6.3-1.7-1.9-5.6-1.9-3.9 0-5.6 1.4-1.7 1.4-2.1 4.3l-6.2-0.6q1.5-9.7 14-9.7 6.7 0 10 3.2 3.3 3.1 3.3 8.9v15.5q0 2.7 0.7 4 0.7 1.4 2.7 1.4zm-20.2-0.2q3.2 0 5.6-1.6 2.5-1.5 3.8-4.1 1.4-2.5 1.4-5.2v-3l-6.3 0.1q-3.9 0.1-6 0.9-2 0.8-3.2 2.5-1.1 1.6-1.1 4.3 0 2.7 1.4 4.4 1.5 1.7 4.4 1.7zm61.8 3.8h-7l-12.2-16.5-4.3 3.2v13.3h-6v-49.2h6v30.7l15.7-17.4h7l-14.5 15.5zm39.7-16.8h-25.6q0 6.1 2.7 9.5 2.6 3.4 7.3 3.4 3.4 0 6-1.4 2.6-1.5 3.4-4.1l5.3 1.5q-1.5 4.1-5.4 6.3-3.9 2.2-9.3 2.2-7.8 0-12.1-4.9-4.2-4.8-4.2-13.9 0-8.9 4.1-13.7 4.2-4.7 12-4.7 7.8 0 11.8 4.7 4 4.8 4 14.4zm-15.7-15.5q-4.5 0-7.1 2.9-2.6 2.9-2.7 8h19.4q-1-10.9-9.6-10.9zm59.7 7.1q0 9.9-2.8 15.8-2.7 5.8-7.3 5.8-4.8 0-4.8-5.2v-0.3l0.1-1h-0.2q-1.1 2.9-3.2 4.7-2 1.8-4.6 1.8-3.5 0-5.5-3.3-2-3.3-2-9.5 0-5.3 1.6-10.1 1.6-4.7 4.4-7.4 2.8-2.8 6.2-2.8 2.4 0 3.9 1.4 1.5 1.4 2.2 4.3h0.2l1-5h3.9l-3.3 16.9q-1.3 6.9-1.3 9.2 0 2.9 1.6 2.9 2.6 0 4.2-4.9 1.7-5 1.7-13.2 0-9.1-3.6-14.8-3.7-5.7-9.6-5.7-5 0-8.7 3.6-3.8 3.6-5.9 10-2 6.5-2 14.8 0 10.2 3.8 16.4 3.9 6.1 10.6 6.1 3.1 0 6-1.1 2.9-1.2 6.2-4.1l2.4 2.9q-3.8 3.3-7.4 4.8-3.6 1.5-7.6 1.5-5.4 0-9.6-3.3-4.2-3.2-6.4-9.2-2.2-6.1-2.2-14 0-9.5 2.5-16.8 2.6-7.4 7.3-11.4 4.8-4 11-4 5.3 0 9.1 3 3.9 3 6 8.5 2.1 5.5 2.1 12.7zm-13.8-1q0-3.5-1.1-5.3-1.2-1.8-3.1-1.8-2.1 0-3.9 2.2-1.7 2.2-2.8 6.3-1.1 4-1.1 8.4 0 9.3 3.8 9.3 2.4 0 4.4-3.2 2-3.1 2.9-8.3 0.9-5.3 0.9-7.6zm21.3 26.1v-49.3h6v12.9q0 2-0.3 6.6h0.1q3.5-6.8 11.2-6.8 11.7 0 11.7 12.6v24h-6.1v-23.1q0-4.5-1.7-6.7-1.7-2.2-5.6-2.2-4.1 0-6.7 3-2.7 3-2.7 8.1v20.9zm71.1-18q0 9-4.2 13.8-4.1 4.8-12 4.8-7.7 0-11.8-4.8-4.1-4.9-4.1-13.8 0-9.3 4.2-14 4.2-4.6 11.9-4.6 8.1 0 12.1 4.6 3.9 4.6 3.9 14zm-6.2 0q0-7.2-2.3-10.7-2.3-3.5-7.4-3.5-5.1 0-7.5 3.6-2.4 3.6-2.4 10.6 0 6.9 2.4 10.6 2.4 3.6 7.2 3.6 5.2 0 7.6-3.6 2.4-3.5 2.4-10.6zm22.5-13.3h-5.6v-4.7h5.7l1.9-9.3h4v9.3h14.3v4.7h-14.3v21.7q0 2.6 1.4 3.9 1.4 1.2 4.6 1.2 4.5 0 9.9-1.1v4.6q-5.6 1.5-11.1 1.5-5.4 0-8.1-2.3-2.7-2.3-2.7-7.2zm52.1 31.2h-5.5v-22.7q0-5.2-0.9-7.2-0.8-2-2.9-2-2.2 0-3.5 3.1-1.3 3.2-1.3 8.7v20.1h-5.6v-28.2q0-6.3-0.2-7.7h5l0.2 4.2v1.6q1.1-3.4 2.9-4.9 1.7-1.6 4.3-1.6 2.9 0 4.3 1.6 1.5 1.6 2.1 5h0.1q1.3-3.6 3.2-5.1 1.8-1.5 4.6-1.5 4 0 5.6 2.9 1.7 2.9 1.7 9.8v23.9h-5.5v-22.7q0-5.2-0.9-7.2-0.8-2-2.9-2-2.2 0-3.5 2.7-1.3 2.8-1.3 8.4zm54.2-3.7q0.8 0 1.9-0.2v3.7q-2.2 0.5-4.6 0.5-3.3 0-4.8-1.7-1.5-1.7-1.7-5.5h-0.2q-2.2 4.1-5.1 5.8-2.9 1.8-7.3 1.8-5.2 0-7.9-2.9-2.6-2.8-2.6-7.8 0-11.6 15.1-11.8l7.8-0.1v-2q0-4.3-1.8-6.2-1.7-1.9-5.6-1.9-3.9 0-5.6 1.4-1.8 1.4-2.1 4.3l-6.2-0.6q1.5-9.7 14-9.7 6.7 0 10 3.1 3.3 3.1 3.3 9v15.5q0 2.6 0.7 4 0.7 1.3 2.7 1.3zm-20.2-0.2q3.2 0 5.6-1.5 2.5-1.5 3.8-4.1 1.4-2.5 1.4-5.3v-2.9l-6.3 0.1q-3.9 0.1-6 0.9-2.1 0.8-3.2 2.4-1.1 1.7-1.1 4.4 0 2.7 1.4 4.4 1.5 1.6 4.4 1.6zm49.2-32v31.2h12.6v4.7h-32.6v-4.7h14v-26.5h-10.6v-4.7zm0-7h-6.6v-6.4h6.6zm40.5-6.3v44.5h12.6v4.7h-32.6v-4.7h14v-39.8h-9.6v-4.7zm40.7 49.2h-7.8v-9.9h7.8zm20.8-18q0-8.9 4.3-13.8 4.3-4.8 12.4-4.8 6 0 10 2.9 3.9 2.9 4.8 7.8l-6.4 0.5q-0.5-3-2.6-4.7-2.2-1.8-6.1-1.8-5.2 0-7.7 3.3-2.4 3.2-2.4 10.5 0 7.4 2.4 10.8 2.5 3.4 7.7 3.4 3.6 0 5.9-1.8 2.4-1.8 3-5.4l6.3 0.4q-0.5 3.2-2.5 5.8-1.9 2.6-5.2 4.1-3.2 1.5-7.2 1.5-8.2 0-12.4-4.8-4.3-4.8-4.3-13.9zm72.9 0q0 9.1-4.1 13.9-4.2 4.8-12.1 4.8-7.7 0-11.8-4.9-4.1-4.8-4.1-13.8 0-9.2 4.2-13.9 4.2-4.7 11.9-4.7 8.1 0 12.1 4.6 3.9 4.7 3.9 14zm-6.2 0q0-7.1-2.3-10.6-2.3-3.6-7.4-3.6-5.1 0-7.5 3.6-2.4 3.6-2.4 10.6 0 7 2.4 10.6 2.4 3.7 7.2 3.7 5.3 0 7.6-3.6 2.4-3.5 2.4-10.7zm33.8 18h-5.5v-22.8q0-5.1-0.9-7.1-0.8-2.1-2.9-2.1-2.2 0-3.5 3.2-1.3 3.2-1.3 8.7v20.1h-5.6v-28.2q0-6.3-0.2-7.7h5l0.2 4.2v1.6q1.2-3.4 2.9-4.9 1.7-1.6 4.3-1.6 2.9 0 4.3 1.6 1.5 1.6 2.1 4.9h0.1q1.3-3.5 3.2-5 1.8-1.5 4.6-1.5 4 0 5.7 2.9 1.6 2.8 1.6 9.8v23.9h-5.5v-22.8q0-5.1-0.9-7.1-0.8-2.1-2.9-2.1-2.2 0-3.5 2.8-1.3 2.8-1.3 8.4z"/>
</svg>