<svg version="1.2" xmlns="http://www.w3.org/2000/svg" viewBox="0 0 860 70" width="860" height="70">
	<title>New Project</title>
	<style>
		.s0 { fill: #000000 } 
	</style>
	<path id="+46 760 338 308" class="s0" aria-label="+46 760 338 308"  d="m46.6 38.2h-20.1v20.3h-6.9v-20.3h-20.1v-6.9h20.1v-20.3h6.9v20.3h20.1zm58.9 13.7h-8.9v15.1h-8.5v-15.1h-31v-6.7l30.1-42.1h9.4v42.1h8.9zm-17.4-6.8v-32.8l-23.7 32.8zm74.2 0.7q0 10.1-5.7 16.1-5.8 6-15.8 6-11.2 0-17.2-8.1-6-8.2-6-23.2 0-16.5 6.2-25.5 6.3-9 17.7-9 15.1 0 19 13.6l-8.1 1.4q-2.6-8.1-11-8.1-7.3 0-11.3 6.6-4 6.6-4 18.4 2.3-4.3 6.5-6.5 4.2-2.3 9.7-2.3 9.1 0 14.6 5.7 5.4 5.6 5.4 14.9zm-8.6 0.4q0-6.8-3.7-10.6-3.6-3.8-9.8-3.8-3.5 0-6.6 1.6-3.1 1.6-4.9 4.4-1.8 2.8-1.8 6.4 0 7.2 3.8 12 3.8 4.8 9.8 4.8 6 0 9.6-3.9 3.6-4 3.6-10.9zm123.8-43.1v6.5q-22.4 32.3-22.4 57.4h-8.9q0-12.5 5.8-26.9 5.8-14.4 17.2-30.2h-34.9v-6.8zm59.5 42.7q0 10.1-5.8 16.1-5.7 6-15.7 6-11.2 0-17.2-8.1-6-8.2-6-23.2 0-16.5 6.2-25.5 6.3-9 17.6-9 15.1 0 19.1 13.6l-8.2 1.4q-2.5-8.1-11-8.1-7.2 0-11.2 6.6-4.1 6.6-4.1 18.4 2.4-4.3 6.6-6.5 4.2-2.3 9.6-2.3 9.1 0 14.6 5.7 5.5 5.6 5.5 14.9zm-8.6 0.4q0-6.8-3.7-10.6-3.6-3.8-9.8-3.8-3.5 0-6.6 1.6-3.1 1.6-4.9 4.4-1.8 2.8-1.8 6.4 0 7.2 3.8 12 3.8 4.8 9.8 4.8 6 0 9.6-3.9 3.6-4 3.6-10.9zm67.2-11.2q0 16-6 24.5-5.8 8.4-17.3 8.4-11.5 0-17.3-8.4-5.8-8.4-5.8-24.5 0-16.5 5.6-24.7 5.7-8.2 17.8-8.2 11.7 0 17.3 8.3 5.7 8.2 5.7 24.6zm-8.7 0q0-13.7-3.4-19.9-3.3-6.1-10.9-6.1-7.9 0-11.4 6-3.4 6.1-3.4 20 0 13.5 3.5 19.7 3.5 6.2 11.1 6.2 7.5 0 11-6.3 3.5-6.4 3.5-19.6zm-9 5.7h-11.1v-11.8h11.1zm133.9 8.7q0 8.9-6 13.7-5.9 4.8-16.6 4.8-10.2 0-16.2-4.6-6.1-4.6-7.2-13.5l8.8-0.8q1.7 11.9 14.6 11.9 6.4 0 10-3 3.7-3 3.7-8.7 0-3.6-2.1-6-2.2-2.5-5.9-3.8-3.7-1.3-8.3-1.3h-4.8v-7.4h4.7q4 0 7.4-1.3 3.4-1.4 5.3-3.8 2-2.5 2-5.9 0-5-3.2-7.8-3.1-2.8-9.3-2.8-5.7 0-9.2 2.9-3.4 2.9-4 8.1l-8.6-0.6q1-8.2 6.8-12.8 5.9-4.6 15.1-4.6 10 0 15.6 4.4 5.6 4.4 5.6 12.3 0 5.7-3.8 9.8-3.7 4.2-10.2 5.5v0.2q7.1 0.8 11.4 5.1 4.4 4.2 4.4 10zm58.2 0q0 8.9-6 13.7-5.9 4.8-16.6 4.8-10.2 0-16.2-4.6-6.1-4.6-7.2-13.5l8.8-0.8q1.7 11.9 14.6 11.9 6.4 0 10.1-3 3.7-3 3.7-8.7 0-3.6-2.2-6-2.2-2.5-5.9-3.8-3.6-1.3-8.2-1.3h-4.9v-7.4h4.7q4 0 7.4-1.3 3.4-1.4 5.4-3.8 1.9-2.5 1.9-5.9 0-5-3.2-7.8-3.1-2.8-9.3-2.8-5.6 0-9.1 2.9-3.5 2.9-4.1 8.1l-8.5-0.6q0.9-8.2 6.7-12.8 5.9-4.6 15.1-4.6 10 0 15.6 4.4 5.6 4.4 5.6 12.3 0 5.7-3.8 9.8-3.7 4.2-10.2 5.5v0.2q7.1 0.8 11.5 5.1 4.3 4.2 4.3 10zm58-0.3q0 8.7-5.9 13.7-5.9 5.1-16.9 5.1-10.7 0-16.7-5-6-4.9-6-13.7 0-6.2 3.7-10.4 3.7-4.3 9.6-5.3v-0.2q-5.3-1.3-8.6-5.4-3.2-4.1-3.2-9.4 0-4.7 2.6-8.5 2.7-3.8 7.5-5.8 4.8-2.1 11-2.1 6.4 0 11.3 2.1 4.8 2.1 7.4 5.8 2.5 3.8 2.5 8.6 0 5.3-3.2 9.4-3.3 4.2-8.6 5.2v0.2q6.1 1 9.8 5.2 3.7 4.2 3.7 10.5zm-10.5-30.1q0-5.2-3.3-7.9-3.1-2.7-9.1-2.7-5.9 0-9.1 2.7-3.3 2.7-3.3 7.9 0 5.3 3.3 8.2 3.3 2.9 9.2 2.9 12.3 0 12.3-11.1zm1.6 29.3q0-5.7-3.7-8.8-3.7-3-10.3-3-6.5 0-10.2 3.3-3.6 3.2-3.6 8.6 0 6.4 3.5 9.8 3.6 3.3 10.5 3.3 7 0 10.4-3.2 3.4-3.3 3.4-10zm125.5 1.1q0 8.9-5.9 13.7-6 4.8-16.7 4.8-10.1 0-16.2-4.6-6.1-4.6-7.2-13.5l8.9-0.8q1.7 11.9 14.5 11.9 6.4 0 10.1-3 3.7-3 3.7-8.7 0-3.6-2.2-6-2.1-2.5-5.8-3.8-3.7-1.3-8.3-1.3h-4.8v-7.4h4.6q4.1 0 7.4-1.3 3.4-1.4 5.4-3.8 1.9-2.5 1.9-5.9 0-5-3.1-7.8-3.2-2.8-9.4-2.8-5.6 0-9.1 2.9-3.5 2.9-4 8.1l-8.6-0.6q0.9-8.2 6.8-12.8 5.8-4.6 15-4.6 10.1 0 15.6 4.4 5.6 4.4 5.6 12.3 0 5.7-3.8 9.8-3.7 4.2-10.2 5.5v0.2q7.2 0.8 11.5 5.1 4.3 4.2 4.3 10zm58.4-14.4q0 16-5.9 24.5-5.9 8.4-17.4 8.4-11.5 0-17.3-8.4-5.7-8.4-5.7-24.5 0-16.5 5.6-24.7 5.6-8.2 17.7-8.2 11.8 0 17.4 8.3 5.6 8.2 5.6 24.6zm-8.6 0q0-13.7-3.4-19.8-3.3-6.2-11-6.2-7.8 0-11.3 6.1-3.4 6-3.4 19.9 0 13.5 3.4 19.7 3.5 6.3 11.1 6.3 7.6 0 11.1-6.4 3.5-6.4 3.5-19.6zm-9 5.7h-11.1v-11.8h11.1zm75.4 8.4q0 8.7-5.9 13.8-5.9 5-16.8 5-10.7 0-16.8-5-6-4.9-6-13.7 0-6.1 3.7-10.4 3.8-4.3 9.6-5.3v-0.2q-5.3-1.3-8.5-5.4-3.2-4.1-3.2-9.4 0-4.7 2.6-8.5 2.6-3.7 7.4-5.8 4.8-2.1 11-2.1 6.5 0 11.3 2.1 4.8 2.1 7.4 5.8 2.6 3.8 2.6 8.6 0 5.3-3.3 9.4-3.3 4.2-8.6 5.2v0.2q6.2 1 9.8 5.2 3.7 4.2 3.7 10.5zm-10.5-30.1q0-5.2-3.2-7.9-3.2-2.7-9.2-2.7-5.8 0-9.1 2.7-3.2 2.7-3.2 7.9 0 5.3 3.2 8.2 3.3 2.9 9.2 2.9 12.3 0 12.3-11.1zm1.7 29.3q0-5.7-3.7-8.8-3.7-3-10.4-3-6.4 0-10.1 3.3-3.7 3.3-3.7 8.7 0 6.3 3.6 9.7 3.6 3.3 10.5 3.3 6.9 0 10.4-3.2 3.4-3.3 3.4-10z"/>
</svg>