<svg xmlns="http://www.w3.org/2000/svg" version="1.2" viewBox="0 0 841 826"><path fill-rule="evenodd" d="M132 15Q69 27 9 48l3 1q57-8 115-13 26-2 53-2 112-3 200 65 56 47 94 110l130 206q-16 9-30 20-53 43-54 112 1 85 81 115 49 14 100 17l132 7-1-79-17 11q-73 44-155 22-87-26-81-116 8-64 70-82 46-9 94-2l3-1q-14-17-25-35l-6-7q-36-5-63-27-20-18-36-39-41-59-76-121-25-41-57-77Q359-2 176 10l-44 5zM9 221q8-7 18-12 82-50 172-16 74 35 62 117-12 61-72 76-45 8-90 2l-3 1q13 16 24 35l7 6 21 5q31 10 54 34 31 36 56 77 35 61 75 119 144 183 377 147 62-12 123-32l-3-1-93 10q-48 5-95 4-81-2-150-44-64-41-107-103L238 413l30-21q62-53 52-134-14-69-79-93-49-14-100-17L9 142v79z"/></svg>